<?xml version="1.0" standalone="no"?><!DOCTYPE svg PUBLIC "-//W3C//DTD SVG 1.1//EN" "http://www.w3.org/Graphics/SVG/1.1/DTD/svg11.dtd"><svg t="1755080188360" class="icon" viewBox="0 0 1024 1024" version="1.1" xmlns="http://www.w3.org/2000/svg" p-id="15741" xmlns:xlink="http://www.w3.org/1999/xlink" width="200" height="200"><path d="M512 0c282.773333 0 512 229.226667 512 512S794.773333 1024 512 1024 0 794.773333 0 512 229.226667 0 512 0z" fill="#FFB400" p-id="15742"></path><path d="M512 512m-490.666667 0a490.666667 490.666667 0 1 0 981.333334 0 490.666667 490.666667 0 1 0-981.333334 0Z" fill="#FFD217" p-id="15743"></path><path d="M42.666667 480a469.333333 458.666667 0 1 0 938.666666 0 469.333333 458.666667 0 1 0-938.666666 0Z" fill="#FFE20D" p-id="15744"></path><path d="M704 576c0 35.349333 57.301333 64 128 64s128-28.650667 128-64-57.301333-64-128-64-128 28.650667-128 64zM64 576c0 35.349333 57.301333 64 128 64s128-28.650667 128-64-57.301333-64-128-64-128 28.650667-128 64z" fill="#FF9191" fill-opacity=".479" p-id="15745"></path><path d="M512 832c94.250667 0 192-101.930667 192-227.669333 0-25.92-8.533333-30.762667-28.096-27.370667l-5.12 1.002667-5.589333 1.322666-6.058667 1.557334-25.130667 6.826666-8.32 2.133334-8.874666 2.154666-9.386667 2.133334-9.941333 2.026666-10.474667 1.92a443.946667 443.946667 0 0 1-75.008 6.293334 443.946667 443.946667 0 0 1-75.008-6.293334l-10.474667-1.92-9.941333-2.026666-9.386667-2.133334-8.853333-2.133333-16.149333-4.266667-20.416-5.546666-5.824-1.429334-5.354667-1.152c-21.333333-4.224-30.592-0.106667-30.592 26.901334C320 730.069333 417.749333 832 512 832z" fill="#894F04" p-id="15746"></path><path d="M512 682.666667c64.789333 0 123.456 11.946667 165.930667 31.232C642.56 784.298667 576.469333 832 512 832c-64.469333 0-130.56-47.701333-165.909333-118.08C388.544 694.613333 447.210667 682.666667 512 682.666667z" fill="#FC5965" p-id="15747"></path><path d="M362.666667 106.666667c0 15.253333 28.458667 29.333333 74.666666 36.949333s103.125333 7.616 149.333334 0C632.874667 136 661.333333 121.92 661.333333 106.666667c0-15.253333-28.458667-29.333333-74.666666-36.949334s-103.125333-7.616-149.333334 0C391.125333 77.333333 362.666667 91.413333 362.666667 106.666667z" fill="#FFF1B7" p-id="15748"></path><path d="M653.354667 76.736a18.474667 18.474667 0 0 1-26.730667 4.437333 20.970667 20.970667 0 0 1-4.352-28.224c52.437333-76.501333 152.149333-64.085333 204.885333-1.130666a20.949333 20.949333 0 0 1-1.578666 28.501333 18.474667 18.474667 0 0 1-27.050667-1.856c-38.122667-45.504-109.098667-54.357333-145.173333-1.706667zM370.645333 76.736c6.186667 9.024 18.133333 11.008 26.730667 4.437333a20.970667 20.970667 0 0 0 4.352-28.224c-52.437333-76.501333-152.149333-64.085333-204.885333-1.130666A20.949333 20.949333 0 0 0 198.4 80.32a18.474667 18.474667 0 0 0 27.050667-1.856c38.122667-45.504 109.098667-54.357333 145.173333-1.706667z" fill="#443C25" p-id="15749"></path><path d="M266.666667 352m-160 0a160 160 0 1 0 320 0 160 160 0 1 0-320 0Z" fill="#894F04" p-id="15750"></path><path d="M128 341.333333c29.866667-7.189333 53.482667-21.226667 70.869333-42.090666 17.365333-20.864 29.312-49.493333 35.797334-85.909334 10.026667 39.210667 22.592 67.84 37.653333 85.909334S310.378667 331.349333 341.333333 341.333333c-29.44 11.221333-52.458667 26.773333-69.013333 46.656C255.744 407.893333 243.2 434.986667 234.666667 469.333333c-5.632-32.341333-17.557333-59.456-35.797334-81.344C180.608 366.101333 156.992 350.549333 128 341.333333z" fill="#FFFFFF" p-id="15751"></path><path d="M362.666667 426.666667m-21.333334 0a21.333333 21.333333 0 1 0 42.666667 0 21.333333 21.333333 0 1 0-42.666667 0Z" fill="#FFFFFF" p-id="15752"></path><path d="M757.333333 352m-160 0a160 160 0 1 0 320 0 160 160 0 1 0-320 0Z" fill="#894F04" p-id="15753"></path><path d="M618.666667 341.333333c29.866667-7.189333 53.482667-21.226667 70.869333-42.090666 17.365333-20.864 29.312-49.493333 35.797333-85.909334 10.026667 39.210667 22.592 67.84 37.653334 85.909334S801.045333 331.349333 832 341.333333c-29.44 11.221333-52.458667 26.773333-69.013333 46.656C746.410667 407.893333 733.866667 434.986667 725.333333 469.333333c-5.632-32.341333-17.557333-59.456-35.797333-81.344C671.274667 366.101333 647.658667 350.549333 618.666667 341.333333z" fill="#FFFFFF" p-id="15754"></path><path d="M853.333333 426.666667m-21.333333 0a21.333333 21.333333 0 1 0 42.666667 0 21.333333 21.333333 0 1 0-42.666667 0Z" fill="#FFFFFF" p-id="15755"></path></svg>